HIERARCHY
ROOT Hips
{
	OFFSET 35.776901 -2.493256 98.642998
	CHANNELS 6 Xposition Yposition Zposition Xrotation Yrotation Zrotation
	JOINT spine
	{
		OFFSET 0.000000 -0.477352 8.301041
		CHANNELS 3 Xrotation Yrotation Zrotation
		JOINT spine1
		{
			OFFSET 0.000000 -0.000002 10.456497
			CHANNELS 3 Xrotation Yrotation Zrotation
			JOINT spine2
			{
				OFFSET 0.000000 -0.000002 10.019203
				CHANNELS 3 Xrotation Yrotation Zrotation
				JOINT Neck
				{
					OFFSET 0.000000 -1.226414 25.723495
					CHANNELS 3 Xrotation Yrotation Zrotation
					JOINT Head
					{
						OFFSET 0.000000 -0.000001 7.771744
						CHANNELS 3 Xrotation Yrotation Zrotation
						End Site
						{
							OFFSET 0.000000 6.203937 18.811996
						}
					}
				}
				JOINT RightShoulder
				{
					OFFSET -4.218800 0.587437 10.820007
					CHANNELS 3 Xrotation Yrotation Zrotation
					JOINT RightArm
					{
						OFFSET 0.000000 -0.000002 14.191406
						CHANNELS 3 Xrotation Yrotation Zrotation
						JOINT RightArmRoll
						{
							OFFSET 0.000000 -0.000001 7.164078
							CHANNELS 3 Xrotation Yrotation Zrotation
							JOINT RightForeArm
							{
								OFFSET 0.000000 -0.000003 20.866501
								CHANNELS 3 Xrotation Yrotation Zrotation
								JOINT RightForeArmRoll
								{
									OFFSET 0.000000 -0.000001 8.039215
									CHANNELS 3 Xrotation Yrotation Zrotation
									JOINT RightHand
									{
										OFFSET 0.000000 -0.000003 16.132996
										CHANNELS 3 Xrotation Yrotation Zrotation
										End Site
										{
											OFFSET 0.000000 0.000000 0.100006
										}
									}
								}
							}
						}
					}
				}
				JOINT LeftShoulder
				{
					OFFSET 4.218800 0.587437 10.820007
					CHANNELS 3 Xrotation Yrotation Zrotation
					JOINT LeftArm
					{
						OFFSET 0.000000 -0.000002 14.191406
						CHANNELS 3 Xrotation Yrotation Zrotation
						JOINT LeftArmRoll
						{
							OFFSET 0.000000 -0.000001 7.164078
							CHANNELS 3 Xrotation Yrotation Zrotation
							JOINT LeftForeArm
							{
								OFFSET 0.000000 -0.000003 20.866501
								CHANNELS 3 Xrotation Yrotation Zrotation
								JOINT LeftForeArmRoll
								{
									OFFSET 0.000000 -0.000001 8.039215
									CHANNELS 3 Xrotation Yrotation Zrotation
									JOINT LeftHand
									{
										OFFSET 0.000000 -0.000003 16.132996
										CHANNELS 3 Xrotation Yrotation Zrotation
										End Site
										{
											OFFSET 0.000000 0.000000 0.100006
										}
									}
								}
							}
						}
					}
				}
			}
		}
	}
	JOINT RightUpLeg
	{
		OFFSET -7.357731 1.131820 -1.349213
		CHANNELS 3 Xrotation Yrotation Zrotation
		JOINT RightUpLegRoll
		{
			OFFSET 0.000000 -0.000003 18.916801
			CHANNELS 3 Xrotation Yrotation Zrotation
			JOINT RightLeg
			{
				OFFSET 0.000000 0.000004 -23.425598
				CHANNELS 3 Xrotation Yrotation Zrotation
				JOINT RightLegRoll
				{
					OFFSET 0.000000 -0.000004 23.502304
					CHANNELS 3 Xrotation Yrotation Zrotation
					JOINT RightFoot
					{
						OFFSET 0.000000 -0.000003 19.561707
						CHANNELS 3 Xrotation Yrotation Zrotation
						JOINT RightToeBase
						{
							OFFSET 0.000000 -0.000003 16.352600
							CHANNELS 3 Xrotation Yrotation Zrotation
							End Site
							{
								OFFSET 0.006931 0.912835 7.919434
							}
						}
					}
				}
			}
		}
	}
	JOINT LeftUpLeg
	{
		OFFSET 7.357731 1.131820 -1.349213
		CHANNELS 3 Xrotation Yrotation Zrotation
		JOINT LeftUpLegRoll
		{
			OFFSET 0.000000 -0.000003 18.916901
			CHANNELS 3 Xrotation Yrotation Zrotation
			JOINT LeftLeg
			{
				OFFSET 0.000000 -0.000004 23.425499
				CHANNELS 3 Xrotation Yrotation Zrotation
				JOINT LeftLegRoll
				{
					OFFSET 0.000000 -0.000004 23.719498
					CHANNELS 3 Xrotation Yrotation Zrotation
					JOINT LeftFoot
					{
						OFFSET 0.000000 -0.000003 19.344406
						CHANNELS 3 Xrotation Yrotation Zrotation
						JOINT LeftToeBase
						{
							OFFSET 0.000000 -0.000003 16.352600
							CHANNELS 3 Xrotation Yrotation Zrotation
							End Site
							{
								OFFSET -0.031063 0.912836 7.919434
							}
						}
					}
				}
			}
		}
	}
}
MOTION
Frames: 13
Frame Time: 0.041667
35.628902 -4.397388 108.191002 -3.048686 -1.516352 3.520868 -0.966457 -0.195180 0.406554 2.071348 -0.393590 0.807745 3.716373 -0.383885 0.812402 15.319465 -3.038632 -0.609793 -10.771478 8.864776 -0.601726 -13.546966 -61.801444 -16.099651 -127.937011 -110.435109 -91.471785 -0.000003 -0.000001 -0.000002 33.084559 -0.824311 1.054439 -0.000003 0.000011 -3.005232 -5.000184 -7.999074 0.000140 -6.248586 56.925156 7.205403 -115.113454 108.006806 86.159305 -0.000001 0.000002 0.000000 31.390388 1.284555 0.570207 0.000001 -0.000006 3.007301 -5.000237 7.998733 -0.000163 -3.667824 -175.723760 2.107214 -179.999991 0.000005 -1.117004 164.209782 -4.276941 -1.408159 -0.000005 0.000002 0.207996 68.424029 6.842029 2.295694 25.456957 -7.355616 0.000001 -5.917855 175.856129 0.272121 -0.000004 -0.000005 -1.135220 -18.753116 3.757733 1.469635 -0.000002 0.000002 -0.260707 68.776310 -6.867752 -2.208324 25.456849 7.355619 0.000002 
35.636303 -4.398100 108.124008 -3.053343 -1.520600 3.528328 -0.960073 -0.193156 0.406752 2.084097 -0.389487 0.807102 3.729112 -0.379791 0.811709 15.285846 -2.928581 -0.639089 -10.773619 8.741597 -0.631417 -13.508212 -61.948566 -16.059764 -127.309412 -110.088538 -90.894880 -0.000001 -0.000000 0.000002 32.517732 -0.902863 1.055971 -0.000005 0.000008 -3.005229 -5.000184 -7.999070 0.000139 -6.212075 57.028022 7.170774 -114.321152 107.720751 85.621680 -0.000000 0.000002 0.000003 30.753941 1.438299 0.544601 0.000005 -0.000007 3.007299 -5.000242 7.998730 -0.000165 -3.770277 -175.879912 2.052056 -179.999991 0.000005 -1.113999 164.052183 -4.310168 -1.421317 -0.000004 0.000002 0.210387 68.460564 6.839711 2.298990 25.456960 -7.355616 0.000001 -5.958820 175.996667 0.301550 -0.000003 -0.000004 -1.134390 -18.923294 3.791833 1.483237 -0.000003 0.000002 -0.263202 68.787218 -6.865918 -2.212502 25.456849 7.355619 0.000002 
35.608505 -4.399736 107.983002 -3.057306 -1.526456 3.534870 -0.953870 -0.191138 0.406830 2.096487 -0.385383 0.806183 3.741501 -0.375697 0.810740 15.254480 -2.809721 -0.668708 -10.777910 8.610566 -0.661620 -13.466835 -62.087314 -16.016679 -126.634835 -109.740588 -90.270901 -0.000004 0.000001 -0.000002 31.960029 -0.980342 1.057949 -0.000002 0.000011 -3.005232 -5.000187 -7.999069 0.000143 -6.178610 57.132237 7.139960 -113.507089 107.441034 85.064904 -0.000000 -0.000000 0.000003 30.116196 1.596315 0.519856 0.000004 -0.000005 3.007297 -5.000238 7.998731 -0.000161 -3.875650 -176.031064 2.001426 -179.999991 0.000005 -1.112004 163.886919 -4.345056 -1.435812 -0.000004 0.000002 0.212908 68.495951 6.837428 2.302265 25.456957 -7.355617 0.000001 -6.001337 176.136222 0.328826 -0.000004 -0.000004 -1.133650 -19.097627 3.826787 1.497406 -0.000003 0.000002 -0.265750 68.798351 -6.864062 -2.216663 25.456854 7.355620 0.000002 
35.620205 -4.417910 107.873001 -3.060605 -1.533611 3.540610 -0.947848 -0.189169 0.406801 2.108517 -0.381359 0.805047 3.753529 -0.371687 0.809555 15.224901 -2.683712 -0.698566 -10.784091 8.473138 -0.692217 -13.423413 -62.218611 -15.971091 -125.912980 -109.392843 -89.599350 -0.000001 0.000002 -0.000001 31.410537 -1.056551 1.060148 -0.000005 0.000013 -3.005242 -5.000183 -7.999069 0.000141 -6.147678 57.237402 7.112294 -112.670357 107.166836 84.487370 -0.000001 0.000002 0.000003 29.479646 1.758020 0.496058 0.000002 -0.000006 3.007301 -5.000243 7.998733 -0.000165 -3.983192 -176.176233 1.954722 -179.999991 0.000005 -1.109996 163.715536 -4.378750 -1.450694 -0.000005 0.000002 0.215532 68.530095 6.835210 2.305530 25.456953 -7.355617 0.000001 -6.045196 176.273782 0.354002 -0.000004 -0.000004 -1.132990 -19.275701 3.862293 1.512091 -0.000003 0.000002 -0.268343 68.809586 -6.862245 -2.220724 25.456854 7.355620 0.000003 
35.583607 -4.413438 107.741997 -3.063299 -1.541766 3.545621 -0.942006 -0.187287 0.406681 2.120176 -0.377498 0.803751 3.765198 -0.367843 0.808213 15.197034 -2.552184 -0.728562 -10.791818 8.330789 -0.723109 -13.378272 -62.342927 -15.923377 -125.143655 -109.046620 -88.879988 -0.000001 0.000001 -0.000003 30.868073 -1.131318 1.062346 -0.000003 0.000010 -3.005241 -5.000182 -7.999068 0.000143 -6.118699 57.343167 7.087045 -111.809445 106.897481 83.886608 -0.000001 -0.000000 0.000002 28.846768 1.922825 0.473294 0.000005 -0.000005 3.007302 -5.000243 7.998735 -0.000166 -4.092192 -176.315405 1.911371 -179.999991 0.000005 -1.108002 163.539113 -4.413184 -1.467454 -0.000005 0.000002 0.218233 68.562907 6.833053 2.308691 25.456959 -7.355618 0.000001 -6.090216 176.408323 0.377151 -0.000004 -0.000004 -1.132430 -19.456719 3.898077 1.527212 -0.000003 0.000002 -0.270974 68.820747 -6.860532 -2.224509 25.456853 7.355619 0.000002 
35.594204 -4.415265 107.628998 -3.065432 -1.550590 3.550002 -0.936349 -0.185531 0.406485 2.131475 -0.373885 0.802356 3.776496 -0.364246 0.806775 15.170617 -2.416775 -0.758621 -10.800617 8.185013 -0.754220 -13.332005 -62.461124 -15.874217 -124.327311 -108.703588 -88.113074 -0.000003 -0.000001 -0.000002 30.331402 -1.204432 1.064339 -0.000006 0.000010 -3.005239 -5.000183 -7.999074 0.000143 -6.091086 57.449056 7.063479 -110.923023 106.632148 83.260375 0.000001 0.000003 0.000004 28.220156 2.090110 0.451558 0.000002 -0.000009 3.007300 -5.000243 7.998734 -0.000160 -4.201879 -176.451544 1.871029 -179.999991 0.000005 -1.105994 163.359260 -4.446472 -1.483420 -0.000005 0.000002 0.220984 68.594367 6.830958 2.311749 25.456960 -7.355616 0.000001 -6.136168 176.540869 0.398123 -0.000005 -0.000004 -1.131970 -19.640069 3.933856 1.542699 -0.000003 0.000002 -0.273632 68.831812 -6.858843 -2.228406 25.456860 7.355621 0.000001 
35.602303 -4.425628 107.494003 -3.067061 -1.559795 3.553854 -0.930886 -0.183942 0.406229 2.142385 -0.370604 0.800919 3.787406 -0.360982 0.805298 15.145564 -2.279137 -0.788644 -10.810244 8.037249 -0.785433 -13.285039 -62.573883 -15.824104 -123.463524 -108.365001 -87.298055 0.000000 0.000003 0.000000 29.799330 -1.275690 1.065892 -0.000006 0.000009 -3.005240 -5.000179 -7.999069 0.000142 -6.064288 57.554705 7.040871 -110.009397 106.370060 82.606254 0.000002 0.000003 0.000003 27.602183 2.259286 0.430787 0.000003 -0.000006 3.007300 -5.000241 7.998729 -0.000165 -4.311542 -176.582670 1.832991 -179.999991 0.000005 -1.104997 163.177331 -4.477676 -1.499189 -0.000005 0.000003 0.223759 68.624277 6.828915 2.314714 25.456957 -7.355617 0.000001 -6.182872 176.669455 0.417094 -0.000004 -0.000004 -1.131620 -19.825042 3.969343 1.558461 -0.000004 0.000002 -0.276310 68.842802 -6.857220 -2.232021 25.456851 7.355619 0.000002 
35.640903 -4.433137 107.375999 -3.068203 -1.569049 3.557257 -0.925608 -0.182557 0.405927 2.152924 -0.367735 0.799500 3.797944 -0.358131 0.803845 15.121504 -2.140907 -0.818551 -10.820423 7.889003 -0.816611 -13.237964 -62.682033 -15.773709 -122.553770 -108.032467 -86.436426 -0.000002 0.000000 -0.000003 29.270943 -1.344887 1.066807 -0.000005 0.000012 -3.005240 -5.000182 -7.999068 0.000146 -6.037703 57.659631 7.018480 -109.066059 106.110493 81.920770 -0.000000 0.000002 0.000000 26.995436 2.429725 0.410876 0.000003 -0.000007 3.007299 -5.000242 7.998732 -0.000165 -4.420436 -176.710791 1.796830 -179.999991 0.000005 -1.103003 162.994569 -4.508759 -1.516248 -0.000005 0.000002 0.226530 68.652608 6.826929 2.317787 25.456955 -7.355617 0.000002 -6.230121 176.795007 0.433928 -0.000004 -0.000004 -1.131370 -20.011030 4.004256 1.574419 -0.000003 0.000002 -0.279002 68.853395 -6.855674 -2.235573 25.456853 7.355620 0.000002 
35.593605 -4.430729 107.231010 -3.068933 -1.578055 3.560325 -0.920531 -0.181418 0.405597 2.163073 -0.365365 0.798156 3.808093 -0.355776 0.802473 15.098347 -2.003720 -0.848273 -10.830692 7.741723 -0.847657 -13.191200 -62.786179 -15.723512 -121.598473 -107.707364 -85.528244 -0.000001 -0.000000 0.000002 28.744936 -1.411778 1.066867 -0.000004 0.000011 -3.005240 -5.000183 -7.999074 0.000140 -6.010744 57.763463 6.995570 -108.091446 105.852783 81.201667 0.000002 0.000004 0.000006 26.402395 2.600817 0.391659 0.000002 -0.000009 3.007300 -5.000243 7.998729 -0.000163 -4.527827 -176.835879 1.761961 -179.999991 0.000005 -1.102005 162.812572 -4.536877 -1.532559 -0.000004 0.000002 0.229271 68.679191 6.825057 2.320691 25.456955 -7.355615 0.000000 -6.277715 176.916571 0.448700 -0.000004 -0.000004 -1.131250 -20.197225 4.038315 1.590465 -0.000003 0.000002 -0.281696 68.863709 -6.854254 -2.238769 25.456853 7.355620 0.000001 
35.604702 -4.443586 107.110001 -3.069298 -1.586503 3.563132 -0.915647 -0.180563 0.405253 2.172824 -0.363574 0.796950 3.817843 -0.354000 0.801244 15.075713 -1.869223 -0.877707 -10.840782 7.596886 -0.878448 -13.145306 -62.887054 -15.674137 -120.599175 -107.391064 -84.575029 -0.000001 -0.000001 -0.000000 28.220204 -1.476156 1.065861 -0.000005 0.000015 -3.005248 -5.000181 -7.999068 0.000141 -5.982824 57.865725 6.971382 -107.082360 105.596371 80.444725 -0.000001 0.000004 0.000004 25.825647 2.771917 0.372910 0.000004 -0.000009 3.007298 -5.000241 7.998731 -0.000166 -4.632960 -176.958945 1.727909 -179.999991 0.000005 -1.100994 162.632678 -4.563985 -1.549609 -0.000005 0.000003 0.231956 68.704012 6.823230 2.323515 25.456959 -7.355617 0.000001 -6.325442 177.033135 0.461495 -0.000003 -0.000004 -1.131249 -20.383211 4.071244 1.606524 -0.000003 0.000002 -0.284387 68.873524 -6.852940 -2.241916 25.456858 7.355622 0.000002 
35.584705 -4.442377 106.945007 -3.069330 -1.594072 3.565775 -0.910967 -0.180031 0.404910 2.182183 -0.362447 0.795937 3.827203 -0.352886 0.800218 15.053489 -1.739051 -0.906774 -10.850236 7.455958 -0.908875 -13.100806 -62.985525 -15.626201 -119.558117 -107.084799 -83.578935 0.000002 0.000001 0.000001 27.695630 -1.537776 1.063593 -0.000003 0.000013 -3.005249 -5.000178 -7.999068 0.000138 -5.953325 57.965951 6.945143 -106.036023 105.340628 79.646447 -0.000001 0.000001 0.000006 25.267448 2.942429 0.354348 0.000001 -0.000007 3.007303 -5.000237 7.998730 -0.000166 -4.735130 -177.078979 1.694001 -179.999991 0.000005 -1.099000 162.456186 -4.587255 -1.565353 -0.000005 0.000002 0.234559 68.726955 6.821516 2.326276 25.456957 -7.355616 0.000000 -6.373116 177.144713 0.472287 -0.000005 -0.000004 -1.131380 -20.568187 4.102755 1.622474 -0.000002 0.000002 -0.287065 68.882751 -6.851806 -2.244632 25.456858 7.355620 0.000003 
35.551403 -4.450066 106.815002 -3.069086 -1.600453 3.568359 -0.906489 -0.179863 0.404584 2.191133 -0.362066 0.795178 3.836162 -0.352514 0.799454 15.031407 -1.614850 -0.935399 -10.858770 7.320412 -0.938777 -13.058212 -63.082268 -15.580264 -118.477226 -106.790055 -82.541491 0.000002 0.000000 -0.000003 27.170014 -1.596386 1.059854 -0.000005 0.000014 -3.005248 -5.000185 -7.999067 0.000142 -5.921642 58.063848 6.916103 -104.948978 105.085029 78.802597 -0.000002 0.000000 0.000003 24.730503 3.111720 0.335638 0.000002 -0.000004 3.007298 -5.000238 7.998731 -0.000167 -4.833585 -177.197988 1.659810 -179.999991 0.000005 -1.098003 162.284653 -4.607690 -1.581950 -0.000004 0.000003 0.237052 68.747842 6.819906 2.329086 25.456959 -7.355616 -0.000000 -6.420524 177.250335 0.481166 -0.000003 -0.000004 -1.131650 -20.751433 4.132583 1.638209 -0.000002 0.000002 -0.289723 68.891405 -6.850772 -2.247204 25.456849 7.355621 0.000001 
35.543003 -4.451788 106.647003 -3.067057 -1.607217 3.570624 -0.902583 -0.179878 0.404205 2.198944 -0.362068 0.794551 3.843963 -0.352523 0.798829 15.009498 -1.491241 -0.964310 -10.865542 7.184928 -0.969096 -13.016560 -63.172297 -15.535117 -117.339576 -106.503953 -81.447977 0.000000 -0.000000 0.000001 26.644380 -1.654049 1.055944 -0.000003 0.000010 -3.005252 -5.000183 -7.999067 0.000142 -5.889675 58.160065 6.886575 -103.816792 104.829497 77.915328 -0.000001 0.000003 0.000005 24.210336 3.285523 0.314802 0.000002 -0.000003 3.007300 -5.000238 7.998735 -0.000164 -4.928743 -177.312954 1.625637 -179.999991 0.000005 -1.095994 162.123788 -4.626417 -1.596213 -0.000005 0.000002 0.239351 68.766317 6.818346 2.331750 25.456957 -7.355617 0.000000 -6.467778 177.352938 0.489042 -0.000004 -0.000004 -1.131970 -20.928891 4.162671 1.653720 -0.000002 0.000002 -0.292275 68.900285 -6.849859 -2.249481 25.456851 7.355619 0.000002 
